
<svg width="19px" height="15px" viewBox="0 0 19 15" version="1.1" xmlns="http://www.w3.org/2000/svg" xmlns:xlink="http://www.w3.org/1999/xlink">
    <g id="Page-1" stroke="none" stroke-width="1" fill="none" fill-rule="evenodd">
        <g id="ThemePerception-Post-NoImage" transform="translate(-711.000000, -1118.000000)" fill="#222222" fill-rule="nonzero">
            <g id="quotetop" transform="translate(600.000000, 1110.000000)">
                <path d="M118.15,8.3 L118.95,9.55 C115.55,11.2 114.25,13.75 114,15.5 C116.55,16.2 118.25,17.2 118.25,19.45 C118.25,21.1 117,22.35 115.1,22.35 C112.9,22.35 111.55,20.7 111.55,17.9 C111.55,14.85 113.1,10.4 118.15,8.3 Z M128.4,8.3 L129.2,9.55 C125.85,11.2 124.55,13.75 124.3,15.5 C126.8,16.2 128.55,17.2 128.55,19.45 C128.55,21.1 127.3,22.35 125.35,22.35 C123.15,22.35 121.85,20.7 121.85,17.9 C121.85,14.85 123.4,10.4 128.4,8.3 Z" id="“"></path>
            </g>
        </g>
    </g>
</svg>